v 0.500000 0.000000 0.000000
v 0.497592 0.000000 0.049009
v 0.490393 0.000000 0.097545
v 0.478470 0.000000 0.145142
v 0.461940 0.000000 0.191342
v 0.440961 0.000000 0.235698
v 0.415735 0.000000 0.277785
v 0.386505 0.000000 0.317197
v 0.353553 0.000000 0.353553
v 0.317197 0.000000 0.386505
v 0.277785 0.000000 0.415735
v 0.235698 0.000000 0.440961
v 0.191342 0.000000 0.461940
v 0.145142 0.000000 0.478470
v 0.097545 0.000000 0.490393
v 0.049009 0.000000 0.497592
v 0.000000 0.000000 0.500000
v -0.049009 0.000000 0.497592
v -0.097545 0.000000 0.490393
v -0.145142 0.000000 0.478470
v -0.191342 0.000000 0.461940
v -0.235698 0.000000 0.440961
v -0.277785 0.000000 0.415735
v -0.317197 0.000000 0.386505
v -0.353553 0.000000 0.353553
v -0.386505 0.000000 0.317197
v -0.415735 0.000000 0.277785
v -0.440961 0.000000 0.235698
v -0.461940 0.000000 0.191342
v -0.478470 0.000000 0.145142
v -0.490393 0.000000 0.097545
v -0.497592 0.000000 0.049009
v -0.500000 0.000000 0.000000
v -0.497592 0.000000 -0.049009
v -0.490393 0.000000 -0.097545
v -0.478470 0.000000 -0.145142
v -0.461940 0.000000 -0.191342
v -0.440961 0.000000 -0.235698
v -0.415735 0.000000 -0.277785
v -0.386505 0.000000 -0.317197
v -0.353553 0.000000 -0.353553
v -0.317197 0.000000 -0.386505
v -0.277785 0.000000 -0.415735
v -0.235698 0.000000 -0.440961
v -0.191342 0.000000 -0.461940
v -0.145142 0.000000 -0.478470
v -0.097545 0.000000 -0.490393
v -0.049009 0.000000 -0.497592
v -0.000000 0.000000 -0.500000
v 0.049009 0.000000 -0.497592
v 0.097545 0.000000 -0.490393
v 0.145142 0.000000 -0.478470
v 0.191342 0.000000 -0.461940
v 0.235698 0.000000 -0.440961
v 0.277785 0.000000 -0.415735
v 0.317197 0.000000 -0.386505
v 0.353553 0.000000 -0.353553
v 0.386505 0.000000 -0.317197
v 0.415735 0.000000 -0.277785
v 0.440961 0.000000 -0.235698
v 0.461940 0.000000 -0.191342
v 0.478470 0.000000 -0.145142
v 0.490393 0.000000 -0.097545
v 0.497592 0.000000 -0.049009
v 0.700000 0.000000 0.000000
v 0.696629 0.000000 0.068612
v 0.686550 0.000000 0.136563
v 0.669858 0.000000 0.203199
v 0.646716 0.000000 0.267878
v 0.617345 0.000000 0.329978
v 0.582029 0.000000 0.388899
v 0.541107 0.000000 0.444075
v 0.494975 0.000000 0.494975
v 0.444075 0.000000 0.541107
v 0.388899 0.000000 0.582029
v 0.329978 0.000000 0.617345
v 0.267878 0.000000 0.646716
v 0.203199 0.000000 0.669858
v 0.136563 0.000000 0.686550
v 0.068612 0.000000 0.696629
v 0.000000 0.000000 0.700000
v -0.068612 0.000000 0.696629
v -0.136563 0.000000 0.686550
v -0.203199 0.000000 0.669858
v -0.267878 0.000000 0.646716
v -0.329978 0.000000 0.617345
v -0.388899 0.000000 0.582029
v -0.444075 0.000000 0.541107
v -0.494975 0.000000 0.494975
v -0.541107 0.000000 0.444075
v -0.582029 0.000000 0.388899
v -0.617345 0.000000 0.329978
v -0.646716 0.000000 0.267878
v -0.669858 0.000000 0.203199
v -0.686550 0.000000 0.136563
v -0.696629 0.000000 0.068612
v -0.700000 0.000000 0.000000
v -0.696629 0.000000 -0.068612
v -0.686550 0.000000 -0.136563
v -0.669858 0.000000 -0.203199
v -0.646716 0.000000 -0.267878
v -0.617345 0.000000 -0.329978
v -0.582029 0.000000 -0.388899
v -0.541107 0.000000 -0.444075
v -0.494975 0.000000 -0.494975
v -0.444075 0.000000 -0.541107
v -0.388899 0.000000 -0.582029
v -0.329978 0.000000 -0.617345
v -0.267878 0.000000 -0.646716
v -0.203199 0.000000 -0.669858
v -0.136563 0.000000 -0.686550
v -0.068612 0.000000 -0.696629
v -0.000000 0.000000 -0.700000
v 0.068612 0.000000 -0.696629
v 0.136563 0.000000 -0.686550
v 0.203199 0.000000 -0.669858
v 0.267878 0.000000 -0.646716
v 0.329978 0.000000 -0.617345
v 0.388899 0.000000 -0.582029
v 0.444075 0.000000 -0.541107
v 0.494975 0.000000 -0.494975
v 0.541107 0.000000 -0.444075
v 0.582029 0.000000 -0.388899
v 0.617345 0.000000 -0.329978
v 0.646716 0.000000 -0.267878
v 0.669858 0.000000 -0.203199
v 0.686550 0.000000 -0.136563
v 0.696629 0.000000 -0.068612
vn 0 1 0
vn 0 1 0
vn 0 1 0
vn 0 1 0
vn 0 1 0
vn 0 1 0
vn 0 1 0
vn 0 1 0
vn 0 1 0
vn 0 1 0
vn 0 1 0
vn 0 1 0
vn 0 1 0
vn 0 1 0
vn 0 1 0
vn 0 1 0
vn 0 1 0
vn 0 1 0
vn 0 1 0
vn 0 1 0
vn 0 1 0
vn 0 1 0
vn 0 1 0
vn 0 1 0
vn 0 1 0
vn 0 1 0
vn 0 1 0
vn 0 1 0
vn 0 1 0
vn 0 1 0
vn 0 1 0
vn 0 1 0
vn 0 1 0
vn 0 1 0
vn 0 1 0
vn 0 1 0
vn 0 1 0
vn 0 1 0
vn 0 1 0
vn 0 1 0
vn 0 1 0
vn 0 1 0
vn 0 1 0
vn 0 1 0
vn 0 1 0
vn 0 1 0
vn 0 1 0
vn 0 1 0
vn 0 1 0
vn 0 1 0
vn 0 1 0
vn 0 1 0
vn 0 1 0
vn 0 1 0
vn 0 1 0
vn 0 1 0
vn 0 1 0
vn 0 1 0
vn 0 1 0
vn 0 1 0
vn 0 1 0
vn 0 1 0
vn 0 1 0
vn 0 1 0
vn 0 1 0
vn 0 1 0
vn 0 1 0
vn 0 1 0
vn 0 1 0
vn 0 1 0
vn 0 1 0
vn 0 1 0
vn 0 1 0
vn 0 1 0
vn 0 1 0
vn 0 1 0
vn 0 1 0
vn 0 1 0
vn 0 1 0
vn 0 1 0
vn 0 1 0
vn 0 1 0
vn 0 1 0
vn 0 1 0
vn 0 1 0
vn 0 1 0
vn 0 1 0
vn 0 1 0
vn 0 1 0
vn 0 1 0
vn 0 1 0
vn 0 1 0
vn 0 1 0
vn 0 1 0
vn 0 1 0
vn 0 1 0
vn 0 1 0
vn 0 1 0
vn 0 1 0
vn 0 1 0
vn 0 1 0
vn 0 1 0
vn 0 1 0
vn 0 1 0
vn 0 1 0
vn 0 1 0
vn 0 1 0
vn 0 1 0
vn 0 1 0
vn 0 1 0
vn 0 1 0
vn 0 1 0
vn 0 1 0
vn 0 1 0
vn 0 1 0
vn 0 1 0
vn 0 1 0
vn 0 1 0
vn 0 1 0
vn 0 1 0
vn 0 1 0
vn 0 1 0
vn 0 1 0
vn 0 1 0
vn 0 1 0
vn 0 1 0
vn 0 1 0
vn 0 1 0
f 1//1 2//2 66//66 65//65
f 2//2 3//3 67//67 66//66
f 3//3 4//4 68//68 67//67
f 4//4 5//5 69//69 68//68
f 5//5 6//6 70//70 69//69
f 6//6 7//7 71//71 70//70
f 7//7 8//8 72//72 71//71
f 8//8 9//9 73//73 72//72
f 9//9 10//10 74//74 73//73
f 10//10 11//11 75//75 74//74
f 11//11 12//12 76//76 75//75
f 12//12 13//13 77//77 76//76
f 13//13 14//14 78//78 77//77
f 14//14 15//15 79//79 78//78
f 15//15 16//16 80//80 79//79
f 16//16 17//17 81//81 80//80
f 17//17 18//18 82//82 81//81
f 18//18 19//19 83//83 82//82
f 19//19 20//20 84//84 83//83
f 20//20 21//21 85//85 84//84
f 21//21 22//22 86//86 85//85
f 22//22 23//23 87//87 86//86
f 23//23 24//24 88//88 87//87
f 24//24 25//25 89//89 88//88
f 25//25 26//26 90//90 89//89
f 26//26 27//27 91//91 90//90
f 27//27 28//28 92//92 91//91
f 28//28 29//29 93//93 92//92
f 29//29 30//30 94//94 93//93
f 30//30 31//31 95//95 94//94
f 31//31 32//32 96//96 95//95
f 32//32 33//33 97//97 96//96
f 33//33 34//34 98//98 97//97
f 34//34 35//35 99//99 98//98
f 35//35 36//36 100//100 99//99
f 36//36 37//37 101//101 100//100
f 37//37 38//38 102//102 101//101
f 38//38 39//39 103//103 102//102
f 39//39 40//40 104//104 103//103
f 40//40 41//41 105//105 104//104
f 41//41 42//42 106//106 105//105
f 42//42 43//43 107//107 106//106
f 43//43 44//44 108//108 107//107
f 44//44 45//45 109//109 108//108
f 45//45 46//46 110//110 109//109
f 46//46 47//47 111//111 110//110
f 47//47 48//48 112//112 111//111
f 48//48 49//49 113//113 112//112
f 49//49 50//50 114//114 113//113
f 50//50 51//51 115//115 114//114
f 51//51 52//52 116//116 115//115
f 52//52 53//53 117//117 116//116
f 53//53 54//54 118//118 117//117
f 54//54 55//55 119//119 118//118
f 55//55 56//56 120//120 119//119
f 56//56 57//57 121//121 120//120
f 57//57 58//58 122//122 121//121
f 58//58 59//59 123//123 122//122
f 59//59 60//60 124//124 123//123
f 60//60 61//61 125//125 124//124
f 61//61 62//62 126//126 125//125
f 62//62 63//63 127//127 126//126
f 63//63 64//64 128//128 127//127
f 64//64 1//1 65//65 128//128
